<svg id="Layer_1" data-name="Layer 1" xmlns="http://www.w3.org/2000/svg" viewBox="0 0 118.06 125.11"><defs><style>.cls-1{fill:#231f20;}</style></defs><title>Art_working_scholars_555</title><path class="cls-1" d="M105.31,19.44a.75.75,0,0,0-.58-.28h-.07L89.43,20.53l0-1.06a2.46,2.46,0,0,0-1.82-2.53,132.39,132.39,0,0,0-29.29-3.32h-.15a132.47,132.47,0,0,0-29.3,3.32,2.46,2.46,0,0,0-1.82,2.53l.4,12.88-6.09.55a.75.75,0,0,0-.69.75l-.07,16.93h0v0a.53.53,0,0,0,0,.06.56.56,0,0,0,0,.07.75.75,0,0,0,0,.11l0,.07.06.1.06.07,0,0,0,0,.07.06,0,0,.1.06h0a.72.72,0,0,0,.26.06h0l6.69-.12.1,3.33-6.78.61a.75.75,0,0,0-.69.75l0,5.42L13.34,62a.76.76,0,0,0-.66,1L15,71.46l-2.36,8.05a.76.76,0,0,0,.73,1h.07l15.52-1.4.18,5.7a17.86,17.86,0,0,0,1.08,5.62,14.17,14.17,0,0,0,4,5.83,97.12,97.12,0,0,0,10.74,8.1,100.67,100.67,0,0,0,11.89,6.55l.76.37.34.16a1,1,0,0,0,.34.09h.12a.94.94,0,0,0,.34-.09l.39-.19.71-.34a100.67,100.67,0,0,0,11.89-6.55,97.12,97.12,0,0,0,10.74-8.1,14.17,14.17,0,0,0,4-5.83,17.86,17.86,0,0,0,1.08-5.62L88,67.67l7.78-.7a.75.75,0,0,0,.69-.75l.07-16.93v-.05a.59.59,0,0,0,0-.06.57.57,0,0,0,0-.08v0a.75.75,0,0,0-.21-.35.74.74,0,0,0-.47-.2h-.07l-7.16.13.1-3.3,7.09-.64a.75.75,0,0,0,.69-.75l0-5.57,8.26-.74a.76.76,0,0,0,.66-1l-2.3-8.49,2.36-8.05A.76.76,0,0,0,105.31,19.44ZM16.49,71.68a.76.76,0,0,0,0-.41l-2.12-7.83,6.31-.57,0,10a.76.76,0,0,0,.25.56l0,0a.75.75,0,0,0,.48.25l7.41.93.09,2.91-14.51,1.3ZM78.81,86.05a7.87,7.87,0,0,1-.46,2.43,4.78,4.78,0,0,1-1.3,2A88.57,88.57,0,0,1,67.28,98a87.75,87.75,0,0,1-9,5.17,87.7,87.7,0,0,1-9-5.17,88.58,88.58,0,0,1-9.78-7.52,4.78,4.78,0,0,1-1.3-2,7.88,7.88,0,0,1-.46-2.43L37.4,72.22l41.95-3.77ZM35.89,72.35,36.3,86.1a9.38,9.38,0,0,0,.55,2.9,6.29,6.29,0,0,0,1.72,2.59A86.84,86.84,0,0,0,58,104.66a.78.78,0,0,0,.68,0,89.94,89.94,0,0,0,9.47-5.43,90.09,90.09,0,0,0,9.94-7.65A6.29,6.29,0,0,0,79.78,89a9.38,9.38,0,0,0,.55-2.9l.54-17.79,5.6-.5-.52,16.93a16.35,16.35,0,0,1-1,5.14,12.65,12.65,0,0,1-3.53,5.21,95.61,95.61,0,0,1-10.57,8,99.23,99.23,0,0,1-11.72,6.45l-.7.34-.15.07-.17-.08-.68-.33a99.21,99.21,0,0,1-11.72-6.45,95.59,95.59,0,0,1-10.57-8,12.66,12.66,0,0,1-3.53-5.21,16.35,16.35,0,0,1-1-5.14l-.37-11.88Zm43.85-5.46L22.15,72.07l.06-15.44L95,50.09l-.06,15.44-14,1.26h0ZM29.57,50.64l5.5-.5.12,3.8-5.5.49Zm7-.63,43.29-3.89-.12,3.82L36.7,53.81Zm44.69-.21L81.39,46l5.76-.52L87,49.28ZM58.12,23.55h.09a122.46,122.46,0,0,1,22.28,2.08l-.06,2L36,31.59l-.18-6A122.47,122.47,0,0,1,58.12,23.55Zm23.29.72A123.94,123.94,0,0,0,58.22,22h-.1a123.94,123.94,0,0,0-23.2,2.23.75.75,0,0,0-.61.77l.2,6.69-5.51.5L28.6,19.43a1,1,0,0,1,.64-1,131,131,0,0,1,29-3.29h.11a131,131,0,0,1,29,3.29,1,1,0,0,1,.64,1l-.23,7.51L82,27.46,82,25A.75.75,0,0,0,81.41,24.27ZM95,27.8l-.06,15.44L22.15,49.79l.06-15.44Zm1.49-1a.77.77,0,0,0-.61-.7L89.3,24.78l.08-2.73,14.3-1.29L101.57,28a.76.76,0,0,0,0,.41l2.12,7.83-7.22.65,0-9.87A.73.73,0,0,0,96.48,26.78ZM21,51Z"/><path class="cls-1" d="M35,45.09a.65.65,0,0,0,.64.47h.08l.41,0a.67.67,0,0,0,.62-.58l.84-4.75,1.71,4.51a.67.67,0,0,0,.73.44l.4,0a.68.68,0,0,0,.63-.58l1.17-7.07a.61.61,0,0,0-.12-.53.62.62,0,0,0-.56-.21l-.23,0a.67.67,0,0,0-.62.59l-.79,4.9-1.78-4.68a.65.65,0,0,0-.63-.45h-.08l-.24,0a.67.67,0,0,0-.62.58l-.87,4.91L34.05,38a.66.66,0,0,0-.72-.46l-.23,0a.6.6,0,0,0-.54.84Z"/><path class="cls-1" d="M47.35,44.55l.42,0A4.13,4.13,0,0,0,50.63,43a4.35,4.35,0,0,0,.9-3.17A4.11,4.11,0,0,0,47.4,36l-.44,0a4.25,4.25,0,0,0,.39,8.48Zm-2-6.05a2.59,2.59,0,0,1,1.8-.95h.28A2.59,2.59,0,0,1,50,40a2.92,2.92,0,0,1-.56,2.08,2.54,2.54,0,0,1-1.8,1h-.26a2.69,2.69,0,0,1-2.63-2.56A2.76,2.76,0,0,1,45.31,38.49Z"/><path class="cls-1" d="M53.17,43.22a.62.62,0,0,0,.64.6h.08l.22,0a.64.64,0,0,0,.45-.23.66.66,0,0,0,.13-.49l-.23-2.46,1.23-.12,1.73,2.6a.71.71,0,0,0,.69.32l.27,0a.58.58,0,0,0,.44-.94L57.17,40a2.54,2.54,0,0,0,1-2.35,2.35,2.35,0,0,0-1.54-2.09,2.6,2.6,0,0,0-.9-.14c-.18,0-.39,0-.64,0l-2,.19a.63.63,0,0,0-.59.72ZM54.11,37l1.08-.1.44,0a1.08,1.08,0,0,1,.38.05,1,1,0,0,1,.63.88,1.22,1.22,0,0,1-.21.88,1,1,0,0,1-.75.38l-1.37.13Z"/><path class="cls-1" d="M60.76,43.16h.08l.22,0a.64.64,0,0,0,.45-.23.66.66,0,0,0,.13-.49l-.28-2.88.63-.06,2.2,3a.71.71,0,0,0,.68.31l.3,0a.6.6,0,0,0,.53-.36.58.58,0,0,0-.11-.6l-2.38-3.19,1.62-3.18a.61.61,0,0,0,0-.61.59.59,0,0,0-.51-.26h-.08l-.26,0a.71.71,0,0,0-.61.43l-1.5,3-.64.06L61,35.52a.63.63,0,0,0-.71-.6l-.22,0a.64.64,0,0,0-.46.24.66.66,0,0,0-.13.48l.66,6.89A.62.62,0,0,0,60.76,43.16Z"/><path class="cls-1" d="M67.44,42.52h.08l.22,0a.64.64,0,0,0,.45-.23.66.66,0,0,0,.13-.49l-.66-6.89a.63.63,0,0,0-.71-.6l-.22,0a.64.64,0,0,0-.46.24.66.66,0,0,0-.13.48l.66,6.89A.62.62,0,0,0,67.44,42.52Z"/><path class="cls-1" d="M70.76,42.2h.08l.22,0a.63.63,0,0,0,.59-.72l-.44-4.63,4,4.61a.72.72,0,0,0,.67.29l.25,0a.64.64,0,0,0,.46-.24.66.66,0,0,0,.13-.48l-.66-6.89a.62.62,0,0,0-.71-.6l-.21,0a.63.63,0,0,0-.6.72L75,38.86l-4-4.63a.75.75,0,0,0-.67-.27l-.25,0a.64.64,0,0,0-.46.24.66.66,0,0,0-.13.48l.66,6.89A.62.62,0,0,0,70.76,42.2Z"/><path class="cls-1" d="M81.73,41.27l.39,0a3.77,3.77,0,0,0,2-.79.63.63,0,0,0,.68.4H85a.64.64,0,0,0,.46-.24.66.66,0,0,0,.13-.48l-.29-3a.62.62,0,0,0-.71-.6l-1.45.14a.63.63,0,0,0-.59.72v.13a.62.62,0,0,0,.71.6l.62-.06.07.7a2.77,2.77,0,0,1-1.87,1h-.26a2.78,2.78,0,0,1-.2-5.52,3.33,3.33,0,0,1,1.83.34.7.7,0,0,0,.34.09.63.63,0,0,0,.55-.34l.07-.13a.64.64,0,0,0,.11-.49.66.66,0,0,0-.32-.43,4.62,4.62,0,0,0-2.24-.55l-.5,0a4.26,4.26,0,0,0,.31,8.49Zm0-.17Z"/><path class="cls-1" d="M33.65,62.68c-.91-.29-1.47-.5-1.52-1s.52-.91,1.07-1h.18a2.19,2.19,0,0,1,1.08.31.65.65,0,0,0,.9-.31l.07-.16a.63.63,0,0,0-.24-.85,3.39,3.39,0,0,0-1.77-.48l-.34,0a3,3,0,0,0-1.88.85,2.25,2.25,0,0,0-.62,1.79c.14,1.47,1.43,1.9,2.46,2.24s1.53.54,1.59,1.13a.78.78,0,0,1-.22.64,1.3,1.3,0,0,1-.81.33h-.19a2.43,2.43,0,0,1-1.32-.43h0a.64.64,0,0,0-.9.19l-.12.19a.65.65,0,0,0,.16.88l0,0a3.93,3.93,0,0,0,2.15.66l.36,0a2.76,2.76,0,0,0,1.86-.88,2.36,2.36,0,0,0,.56-1.8C36,63.45,34.71,63,33.65,62.68Z"/><path class="cls-1" d="M44,64.58a.63.63,0,0,0-.47-.22.64.64,0,0,0-.46.21,3.13,3.13,0,0,1-1.89.9h-.28a2.65,2.65,0,0,1-2.61-2.57,2.75,2.75,0,0,1,.54-2A2.53,2.53,0,0,1,40.65,60a3.23,3.23,0,0,1,1.89.41.64.64,0,0,0,.9-.23l.09-.17a.65.65,0,0,0-.22-.88A4.33,4.33,0,0,0,41,58.47l-.49,0A4.1,4.1,0,0,0,37.64,60a4.25,4.25,0,0,0-.87,3.09A4.1,4.1,0,0,0,40.88,67l.45,0a4.54,4.54,0,0,0,2.82-1.35l0,0a.64.64,0,0,0,0-.91Z"/><path class="cls-1" d="M51.51,58.23a.63.63,0,0,0-.72-.6l-.21,0a.64.64,0,0,0-.46.24.66.66,0,0,0-.13.48l.26,2.72-3.51.33-.26-2.72a.63.63,0,0,0-.71-.6l-.22,0a.64.64,0,0,0-.46.24.66.66,0,0,0-.13.48l.66,6.89a.62.62,0,0,0,.64.6h.08l.22,0a.63.63,0,0,0,.59-.72l-.26-2.73,3.51-.33.26,2.73a.62.62,0,0,0,.71.6l.21,0a.63.63,0,0,0,.6-.72Z"/><path class="cls-1" d="M57.34,56.9l-.44,0a4.11,4.11,0,0,0-3.77,4.58,4.17,4.17,0,0,0,4.16,3.9l.42,0a4.13,4.13,0,0,0,2.86-1.51,4.35,4.35,0,0,0,.9-3.17A4.11,4.11,0,0,0,57.34,56.9Zm0,1.49a2.59,2.59,0,0,1,2.6,2.47,2.67,2.67,0,0,1-2.35,3.05h-.26a2.69,2.69,0,0,1-2.62-2.56,2.77,2.77,0,0,1,.56-2A2.59,2.59,0,0,1,57,58.4Z"/><path class="cls-1" d="M71.64,56.14a.67.67,0,0,0-.71-.42l-.35,0a.67.67,0,0,0-.61.54l-1.89,7.14v0a.63.63,0,0,0-.72-.6l-2.78.27L64,57a.63.63,0,0,0-.71-.6l-.22,0a.64.64,0,0,0-.46.24.66.66,0,0,0-.13.48l.66,6.89a.62.62,0,0,0,.64.6h.08l3.65-.35a.63.63,0,0,0,.6-.58.58.58,0,0,0,.12.25.61.61,0,0,0,.48.21h.08l.22,0a.67.67,0,0,0,.62-.54l.5-1.95,2.42-.23.87,1.81a.67.67,0,0,0,.72.42l.23,0a.62.62,0,0,0,.49-.28.64.64,0,0,0,0-.6Zm.24,3.95-1.42.14.53-2Z"/><path class="cls-1" d="M81.59,62.7a.61.61,0,0,0-.07-.61l-1.66-2.48a2.54,2.54,0,0,0,1-2.35,2.35,2.35,0,0,0-1.54-2.09,2.6,2.6,0,0,0-.9-.14c-.18,0-.39,0-.64,0l-2,.19a.64.64,0,0,0-.46.24.66.66,0,0,0-.13.48l.66,6.89a.62.62,0,0,0,.64.6h.08l.22,0a.63.63,0,0,0,.59-.72l-.23-2.46,1.23-.12,1.73,2.6a.71.71,0,0,0,.69.32l.27,0A.6.6,0,0,0,81.59,62.7Zm-3.22-4L77,58.81l-.21-2.19,1.08-.1.44,0a1.08,1.08,0,0,1,.38.05,1,1,0,0,1,.64.88A1,1,0,0,1,78.37,58.68Z"/><path class="cls-1" d="M84.34,59.18c.95.31,1.53.54,1.59,1.13a.78.78,0,0,1-.23.65,1.3,1.3,0,0,1-.8.32h-.19a2.43,2.43,0,0,1-1.32-.43h0a.64.64,0,0,0-.9.19l-.12.19a.66.66,0,0,0,.16.88l0,0a3.93,3.93,0,0,0,2.15.66l.36,0a2.76,2.76,0,0,0,1.86-.88,2.36,2.36,0,0,0,.56-1.8c-.15-1.54-1.47-2-2.53-2.3-.91-.29-1.47-.5-1.52-1a.72.72,0,0,1,.24-.63,1.43,1.43,0,0,1,.83-.33h.18a2.19,2.19,0,0,1,1.08.31.65.65,0,0,0,.9-.31l.07-.16a.63.63,0,0,0-.24-.86,3.39,3.39,0,0,0-1.77-.48l-.34,0a2.49,2.49,0,0,0-2.49,2.64C82,58.41,83.31,58.84,84.34,59.18Z"/><path class="cls-1" d="M53.14,84.51l-2.56,2.56a.52.52,0,0,0,.33.88l1.82.12v.11l-3.68,3.68a1.51,1.51,0,0,0,0,2.13l1.5,1.5a1.51,1.51,0,0,0,2.13,0l5.6-5.6,5.36,5.78.09.1,0,0,.07.07a1.47,1.47,0,0,0,.95.31,3.9,3.9,0,0,0,2.51-1.26c1.23-1.23,1.62-2.75.9-3.51l0,0-.08-.07L62.22,86l2.33-2.33a5.47,5.47,0,0,0,1.75.29,5,5,0,0,0,3.59-1.46,5.17,5.17,0,0,0,1.2-5.27.52.52,0,0,0-.87-.21l-3,3-2.1-.53-.53-2.1,3-3a.52.52,0,0,0-.21-.87,5.48,5.48,0,0,0-1.68-.26,5,5,0,0,0-3.59,1.46,5,5,0,0,0-1.38,2.67,5.43,5.43,0,0,0,.2,2.65l-2.45,2.45-1.14-1.12L50.46,73.9l-.07-.08-.07-.07-.06-.06a.52.52,0,0,0-.3-.16,2,2,0,0,0-1.28,0,4.14,4.14,0,0,0-1.75,1.08c-1.18,1.18-1.52,2.7-.76,3.46ZM64.77,95.12a.46.46,0,0,1-.29-.07l0-.05c-.23-.25,0-1,.37-1.46A3.48,3.48,0,0,1,67.11,92h0a.43.43,0,0,1,.25.06l0,0a.79.79,0,0,1,0,.71,3.48,3.48,0,0,1-.89,1.37A3,3,0,0,1,64.77,95.12Zm-11-6.44-.07-1.13a.52.52,0,0,0-.48-.48L52.12,87l1.75-1.74.79.79.88.91Zm-4,3.92,3-3,0,.32a.52.52,0,0,0,.33.45.53.53,0,0,0,.55-.12l2.53-2.52,1.33,1.43-5.63,5.63a.48.48,0,0,1-.66,0l-1.5-1.5a.47.47,0,0,1,0-.66Zm7-8.07a3.83,3.83,0,0,0-.87,1.33l-.54-.54-.73-.75a.7.7,0,0,1,0-.48,2.81,2.81,0,0,1,1.71-1.74.61.61,0,0,1,.52,0l.1.08,1.18,1.16A3.76,3.76,0,0,0,56.8,84.53Zm-9.95-7.92A3.44,3.44,0,0,1,49,74.5a1.37,1.37,0,0,1,.36-.06.52.52,0,0,1,.29.07L56,81.39a3.9,3.9,0,0,0-2.26,2.25L46.91,77.3A.74.74,0,0,1,46.86,76.61Zm10,9.75a3,3,0,0,1,1.76-1.8.63.63,0,0,1,.52,0l.09.07,7.08,6.45A4.91,4.91,0,0,0,63.46,94l-6.61-7.13A.75.75,0,0,1,56.86,86.35ZM62,79.93a4.4,4.4,0,0,1-.26-2.41,4,4,0,0,1,1.1-2.12,4,4,0,0,1,2.86-1.16l.49,0-2.3,2.3a1,1,0,0,0-.27,1l.54,2.14a1,1,0,0,0,.72.72l2.14.54a1,1,0,0,0,1-.27l2.3-2.3a4.07,4.07,0,0,1-1.13,3.34,4,4,0,0,1-2.86,1.16,4.46,4.46,0,0,1-1.68-.33.53.53,0,0,0-.56.11l-2.6,2.6-1.56-1.42-.68-.67,2.68-2.68A.52.52,0,0,0,62,79.93Z"/></svg>